<svg width="99" height="99" viewBox="0 0 99 99" fill="none" xmlns="http://www.w3.org/2000/svg">
<path d="M49.5 0C39.7098 0 30.1395 2.90312 21.9993 8.34225C13.8591 13.7814 7.51452 21.5122 3.76798 30.5572C0.0214477 39.6021 -0.958817 49.5549 0.951151 59.157C2.86112 68.759 7.57554 77.5791 14.4982 84.5018C21.4209 91.4245 30.241 96.1389 39.843 98.0488C49.4451 99.9588 59.3979 98.9785 68.4428 95.232C77.4878 91.4855 85.2186 85.1409 90.6578 77.0007C96.0969 68.8605 99 59.2902 99 49.5C99 36.3718 93.7848 23.7813 84.5018 14.4982C75.2188 5.21516 62.6282 0 49.5 0ZM75.1815 39.1815L43.6815 70.6815C42.8376 71.5251 41.6933 71.999 40.5 71.999C39.3068 71.999 38.1624 71.5251 37.3185 70.6815L23.8185 57.1815C22.9988 56.3328 22.5452 55.1961 22.5555 54.0162C22.5657 52.8363 23.039 51.7076 23.8733 50.8733C24.7077 50.039 25.8363 49.5657 27.0162 49.5555C28.1961 49.5452 29.3328 49.9988 30.1815 50.8185L40.5 61.137L68.8185 32.8185C69.6672 31.9988 70.8039 31.5452 71.9838 31.5555C73.1637 31.5657 74.2924 32.039 75.1267 32.8733C75.961 33.7076 76.4343 34.8363 76.4445 36.0162C76.4548 37.1961 76.0012 38.3328 75.1815 39.1815Z" fill="#0EA739"/>
</svg>
