<svg width="21" height="21" viewBox="0 0 21 21" fill="none" xmlns="http://www.w3.org/2000/svg">
<path d="M19.2356 18.8806H17.2151V10.7987H19.2356C20.1448 10.7987 20.5489 9.68737 19.9429 9.08119L10.8507 0.999234C10.4466 0.696219 9.84042 0.696219 9.53742 0.999234L0.445222 9.08119C-0.262021 9.58631 0.142065 10.7987 1.05126 10.7987H3.07175V18.8806H1.05126C0.445077 18.8806 0.0410156 19.2847 0.0410156 19.8909C0.0410156 20.4971 0.445077 20.9011 1.05126 20.9011H19.2357C19.8418 20.9011 20.2459 20.4971 20.2459 19.8909C20.2459 19.2847 19.8418 18.8806 19.2356 18.8806ZM15.1946 18.8806H13.1742V10.7987H15.1946V18.8806ZM11.1537 10.7987V18.8806H9.13317V10.7987H11.1537ZM10.1434 3.01979L16.609 8.77818H3.67786L10.1434 3.01979ZM5.0922 10.7987H7.11269V18.8806H5.0922V10.7987Z" fill="white"/>
</svg>
