<svg width="83" height="83" viewBox="0 0 83 83" fill="none" xmlns="http://www.w3.org/2000/svg">
<path d="M41.5 0C33.2921 -9.78785e-08 25.2685 2.43393 18.4438 6.99401C11.6192 11.5541 6.30004 18.0355 3.159 25.6186C0.0179627 33.2018 -0.803876 41.546 0.797411 49.5962C2.3987 57.6465 6.35119 65.0411 12.1551 70.8449C17.9589 76.6488 25.3535 80.6013 33.4038 82.2026C41.454 83.8039 49.7982 82.982 57.3814 79.841C64.9645 76.7 71.4459 71.3808 76.006 64.5562C80.5661 57.7315 83 49.7079 83 41.5H66.4C66.4 46.4248 64.9396 51.2389 62.2036 55.3337C59.4675 59.4285 55.5787 62.62 51.0288 64.5046C46.4789 66.3892 41.4724 66.8823 36.6423 65.9216C31.8121 64.9608 27.3754 62.5893 23.893 59.107C20.4107 55.6246 18.0392 51.1879 17.0784 46.3577C16.1177 41.5276 16.6108 36.5211 18.4954 31.9712C20.38 27.4213 23.5715 23.5325 27.6663 20.7964C31.7611 18.0604 36.5752 16.6 41.5 16.6V0Z" fill="#007AD3"/>
</svg>
