<svg width="21" height="21" viewBox="0 0 21 21" fill="none" xmlns="http://www.w3.org/2000/svg">
<path d="M18.7313 1.62045C16.7119 -0.398922 13.5819 -0.297917 11.5625 1.62045L1.06181 12.1212C0.859817 12.3232 0.758963 12.525 0.758963 12.727L0.0521116 19.189C-0.0488858 19.7949 0.556954 20.4007 1.1628 20.2997L7.62479 19.5929C7.82678 19.5929 8.02863 19.4919 8.23064 19.29L18.7314 8.6883C20.7507 6.76994 20.7507 3.53891 18.7314 1.62051L18.7313 1.62045ZM17.3178 3.03397C18.4285 4.14466 18.5295 6.06303 17.4188 7.27465L13.1781 2.933C14.2888 1.82246 16.2072 1.82246 17.3178 3.034L17.3178 3.03397ZM7.52383 17.1696L6.11031 15.756L14.5917 7.17372L16.0052 8.58724L7.52383 17.1696ZM11.6635 4.34656L13.1781 5.76009L4.59575 14.2414L3.18222 12.8279L11.6635 4.34656ZM2.1725 18.1793L2.47535 15.0492L5.20157 17.7754L2.1725 18.1793Z" fill="white"/>
</svg>
