<svg width="22" height="21" viewBox="0 0 22 21" fill="none" xmlns="http://www.w3.org/2000/svg">
<path d="M21.4495 5.75381L11.4498 1.04512C11.1498 0.900975 10.8498 0.900975 10.5498 1.04512L0.550105 5.75381C0.200054 5.89796 0 6.23436 0 6.6187C0 7.00304 0.200054 7.33943 0.549934 7.48358L10.5496 12.1923C10.6996 12.2404 10.8496 12.2883 10.9996 12.2883C11.1496 12.2883 11.2996 12.2402 11.4496 12.1923L15.9997 10.0301V17.6217C13.0498 19.3996 8.99993 19.4475 5.99998 17.7177V12.3843C5.99998 11.8558 5.54999 11.4233 5.00006 11.4233C4.45012 11.4233 4.00013 11.8558 4.00013 12.3843V18.2461C4.00013 18.5825 4.15013 18.8708 4.45012 19.015C6.40009 20.3123 8.65005 20.937 10.9502 20.937C13.3001 20.937 15.6502 20.2644 17.6002 18.9189C17.8501 18.7267 18.0001 18.4384 18.0001 18.1501L18 9.11698L20 8.15605V11.4233C20 11.9518 20.45 12.3843 20.9999 12.3843C21.5498 12.3843 21.9998 11.9518 21.9998 11.4233L22 6.61828C22 6.23395 21.7999 5.89755 21.4499 5.7534L21.4495 5.75381ZM10.9998 10.2706L3.25006 6.61878L10.9998 2.96698L18.7495 6.61878L10.9998 10.2706Z" fill="white"/>
</svg>
