<svg width="20" height="21" viewBox="0 0 20 21" fill="none" xmlns="http://www.w3.org/2000/svg">
<path d="M19 3.30908H16V1.30908C16 0.709046 15.6 0.309082 15 0.309082H5C4.39996 0.309082 4 0.709046 4 1.30908V3.30908H1C0.399964 3.30908 0 3.70905 0 4.30908V9.30908C0 9.80908 0.299943 10.209 0.799929 10.3091L4.59993 11.209L8.99993 14.809V18.309H5.99993C5.39989 18.309 4.99993 18.709 4.99993 19.309C4.99993 19.9091 5.39989 20.309 5.99993 20.309H13.9999C14.6 20.309 14.9999 19.9091 14.9999 19.309C14.9999 18.709 14.6 18.309 13.9999 18.309H10.9999V14.809L15.4999 11.209L19.2999 10.3091C19.7 10.2091 20 9.80908 20 9.30908V4.30908C20 3.70905 19.6 3.30908 19 3.30908ZM2 5.30908H4V9.00908L2 8.50908V5.30908ZM14 9.80908L10 13.0092L6 9.80908V2.30908H14V9.80908ZM18 8.50915L16 9.00915V5.30915H18V8.50915Z" fill="white"/>
</svg>
