<svg width="18" height="23" viewBox="0 0 18 23" fill="none" xmlns="http://www.w3.org/2000/svg">
<path fill-rule="evenodd" clip-rule="evenodd" d="M5.68575 8.55304H13.1776L13.1776 8.5531C15.5061 8.5531 17.4003 10.4472 17.4003 12.7758V18.7773C17.4003 21.1058 15.5062 23 13.1776 23H4.8226C2.49403 23 0.599854 21.1059 0.599854 18.7773V12.7758C0.599854 10.8082 1.95426 9.15535 3.77862 8.68904V5.22177C3.77862 2.34246 6.12115 0 9.0002 0C11.8795 0 14.2222 2.34246 14.2222 5.22177V5.49421C14.2222 6.0208 13.7953 6.4477 13.2687 6.4477C12.7421 6.4477 12.3152 6.02083 12.3152 5.49421V5.22177C12.3152 3.39404 10.8281 1.90706 9.00026 1.90706C7.17272 1.90706 5.68575 3.39398 5.68575 5.22177V8.55304ZM13.1776 21.0931C14.4544 21.0931 15.4934 20.0542 15.4934 18.7774V12.776C15.4934 11.4992 14.4544 10.4602 13.1776 10.4602H4.82266C3.54585 10.4602 2.50691 11.4992 2.50691 12.776V18.7774C2.50691 20.0542 3.54585 21.0931 4.82266 21.0931H13.1776ZM7.04749 14.0961C7.04749 13.0195 7.92343 12.1436 8.99976 12.1436C10.0764 12.1436 10.9525 13.0197 10.9525 14.0961C10.9525 14.8266 10.5487 15.4636 9.95326 15.7983V18.4551C9.95326 18.9817 9.52636 19.4086 8.99976 19.4086C8.47316 19.4086 8.04626 18.9817 8.04626 18.4551V15.7983C7.45104 15.4634 7.04749 14.8263 7.04749 14.0961Z" fill="white"/>
</svg>
