<svg width="30" height="23" viewBox="0 0 30 23" fill="none" xmlns="http://www.w3.org/2000/svg">
<path fill-rule="evenodd" clip-rule="evenodd" d="M0.772461 1.5C0.772461 0.671573 1.44403 0 2.27246 0H27.727C28.5554 0 29.227 0.671573 29.227 1.5C29.227 2.32843 28.5554 3 27.727 3H2.27246C1.44403 3 0.772461 2.32843 0.772461 1.5ZM0.772461 11.5C0.772461 10.6716 1.44403 10 2.27246 10H27.727C28.5554 10 29.227 10.6716 29.227 11.5C29.227 12.3284 28.5554 13 27.727 13H2.27246C1.44403 13 0.772461 12.3284 0.772461 11.5ZM2.27246 20C1.44403 20 0.772461 20.6716 0.772461 21.5C0.772461 22.3284 1.44403 23 2.27246 23H27.727C28.5554 23 29.227 22.3284 29.227 21.5C29.227 20.6716 28.5554 20 27.727 20H2.27246Z" fill="white"/>
</svg>
