<svg width="27" height="27" viewBox="0 0 27 27" fill="none" xmlns="http://www.w3.org/2000/svg">
<path d="M15.9659 13.1659L25.7659 3.36586C26.131 2.99328 26.3343 2.49166 26.3317 1.97C26.3291 1.44834 26.1207 0.948801 25.7518 0.579929C25.3829 0.211056 24.8834 0.00265999 24.3617 2.52877e-05C23.8401 -0.00260941 23.3384 0.20073 22.9659 0.565858L13.1659 10.3659L3.36586 0.565858C2.99328 0.20073 2.49166 -0.00260941 1.97 2.52877e-05C1.44834 0.00265999 0.948801 0.211056 0.579929 0.579929C0.211056 0.948801 0.00265999 1.44834 2.52877e-05 1.97C-0.00260941 2.49166 0.20073 2.99328 0.565858 3.36586L10.3659 13.1659L0.565858 22.9659C0.20073 23.3384 -0.00260941 23.8401 2.52877e-05 24.3617C0.00265999 24.8834 0.211056 25.3829 0.579929 25.7518C0.948801 26.1207 1.44834 26.3291 1.97 26.3317C2.49166 26.3343 2.99328 26.131 3.36586 25.7659L13.1659 15.9659L22.9659 25.7659C23.3384 26.131 23.8401 26.3343 24.3617 26.3317C24.8834 26.3291 25.3829 26.1207 25.7518 25.7518C26.1207 25.3829 26.3291 24.8834 26.3317 24.3617C26.3343 23.8401 26.131 23.3384 25.7659 22.9659L15.9659 13.1659Z" fill="#03111B"/>
</svg>
